<svg width="15.000000" height="15.000000" viewBox="0 0 15 15" fill="none" xmlns="http://www.w3.org/2000/svg" xmlns:xlink="http://www.w3.org/1999/xlink">
	<desc>
			Created with Pixso.
	</desc>
	<defs/>
	<rect id="Icons" width="15.000000" height="15.000000" fill="#FFFFFF" fill-opacity="0"/>
	<rect id="Icons" width="15.000000" height="15.000000" fill="#FFFFFF" fill-opacity="0"/>
	<rect id="Icons" width="15.000000" height="15.000000" fill="#FFFFFF" fill-opacity="0"/>
	<rect id="Icons" width="15.000000" height="15.000000" fill="#FFFFFF" fill-opacity="0"/>
	<rect id="Rectangle 22" x="0.500000" y="0.500000" width="9.000000" height="9.000000" stroke="#FFB400" stroke-opacity="1.000000" stroke-width="1.000000"/>
	<rect id="Rectangle 23" x="5.500000" y="5.500000" width="9.000000" height="9.000000" stroke="#FFB400" stroke-opacity="1.000000" stroke-width="1.000000"/>
	<rect id="Icons" width="15.000000" height="15.000000" fill="#FFFFFF" fill-opacity="0"/>
	<rect id="Icons" width="15.000000" height="15.000000" fill="#FFFFFF" fill-opacity="0"/>
	<rect id="Rectangle 22" x="0.500000" y="0.500000" width="9.000000" height="9.000000" stroke="#FFB400" stroke-opacity="1.000000" stroke-width="1.000000"/>
	<path id="Rectangle 23" d="M14.231 14C12.2544 11.4673 7.01025 5 5 5C2.5 5 5 15 5 15L15 15C15 15 14.7124 14.6167 14.231 14ZM12.9585 14Q11.5122 12.1758 10.1812 10.6543Q8.30957 8.51562 6.95117 7.30859Q6.18213 6.625 5.62256 6.28076Q5.36182 6.12061 5.16797 6.04688Q5.12793 6.03174 5.09619 6.02148Q4.99365 6.23486 4.9375 6.68652Q4.79639 7.8125 5.05469 9.87598Q5.24463 11.3984 5.62744 13.2334Q5.71387 13.6489 5.79199 14L12.9585 14Z" fill="#FFB400" fill-opacity="1.000000" fill-rule="evenodd"/>
</svg>
